<?xml version="1.0" standalone="no"?>
<!DOCTYPE svg PUBLIC "-//W3C//DTD SVG 20010904//EN"
 "http://www.w3.org/TR/2001/REC-SVG-20010904/DTD/svg10.dtd">
<svg version="1.0" xmlns="http://www.w3.org/2000/svg"
 width="2550.000000pt" height="2550.000000pt" viewBox="0 0 2550.000000 2550.000000"
 preserveAspectRatio="xMidYMid meet">
<metadata>
Created by potrace 1.14, written by Peter Selinger 2001-2017
</metadata>
<g transform="translate(0.000000,2550.000000) scale(0.100000,-0.100000)"
fill="#000000" stroke="none">
<path d="M5240 23993 c-19 -1 -87 -8 -150 -14 -265 -25 -594 -97 -876 -193
-984 -335 -1810 -1051 -2279 -1976 -100 -199 -157 -335 -226 -540 -114 -342
-172 -629 -199 -980 -17 -217 -9 -15092 8 -15210 77 -542 184 -909 387 -1325
204 -419 457 -768 802 -1105 664 -651 1479 -1031 2423 -1132 103 -11 1456 -13
7630 -13 7182 0 7511 1 7655 18 946 114 1750 501 2405 1157 323 322 566 659
762 1055 209 425 335 855 395 1350 17 144 18 473 18 7655 0 6174 -2 7527 -13
7630 -65 611 -248 1168 -548 1670 -171 285 -341 506 -584 753 -337 345 -686
598 -1105 802 -416 203 -782 310 -1325 387 -66 9 -1783 12 -7615 13 -4141 1
-7546 0 -7565 -2z m14731 -1163 c1192 -93 2213 -848 2652 -1960 86 -218 151
-472 189 -735 11 -73 13 -1465 13 -7390 l0 -7300 -22 -140 c-133 -833 -561
-1541 -1230 -2037 -395 -294 -856 -485 -1373 -571 l-135 -22 -7240 -3 c-5285
-2 -7274 0 -7365 8 -512 46 -1031 236 -1467 537 -318 220 -612 521 -826 848
-292 446 -459 945 -497 1480 -8 117 -10 2083 -8 7315 3 6739 5 7162 21 7270
57 378 144 667 291 967 485 989 1440 1642 2532 1732 154 13 14302 13 14465 1z"/>
<path d="M9700 21135 c0 -3 1296 -1848 2880 -4101 l2880 -4096 -33 -46 c-18
-26 -1359 -1897 -2980 -4159 -1621 -2262 -2950 -4119 -2953 -4128 -6 -13 303
-15 3031 -15 2630 0 3036 2 3032 14 -3 8 -419 653 -923 1433 -505 780 -918
1425 -918 1433 0 12 3040 4267 3079 4308 9 10 435 -581 2106 -2926 1833 -2573
2095 -2936 2104 -2918 7 14 10 2352 10 6951 0 6623 -1 6934 -18 7015 -19 88
-71 266 -85 287 -4 7 -791 -1078 -2127 -2937 -1166 -1622 -2121 -2948 -2121
-2947 -1 1 -648 922 -1439 2046 -1246 1772 -1435 2047 -1427 2065 5 12 387
593 847 1291 461 699 862 1307 892 1353 l53 82 -2945 0 c-1620 0 -2945 -2
-2945 -5z"/>
<path d="M4536 20029 c-10 -29 -35 -137 -48 -209 -11 -62 -13 -1253 -13 -6915
0 -3762 4 -6875 8 -6919 9 -75 10 -78 26 -60 10 11 1144 1591 2521 3513 2479
3460 2503 3494 2489 3520 -12 20 -4961 7063 -4975 7080 -2 2 -6 -2 -8 -10z"/>
</g>
</svg>
