<?xml version="1.0" encoding="utf-8"?>
<!-- Generator: Adobe Illustrator 27.9.0, SVG Export Plug-In . SVG Version: 6.00 Build 0)  -->
<svg version="1.1" id="Layer_1" xmlns="http://www.w3.org/2000/svg" xmlns:xlink="http://www.w3.org/1999/xlink" x="0px" y="0px"
	 viewBox="0 0 720 230" style="enable-background:new 0 0 720 230;" xml:space="preserve">
<style type="text/css">
	.st0{fill:#00B5E2;}
	.st1{fill:#00000A;}
</style>
<g>
	<path d="M317.9,150.5h22.5v-49.3H360V83.7h-61.7v17.5h19.6V150.5L317.9,150.5z M384.7,103.9v-5.6h-20.5v52.2h21.6v-23.2
		c0-8.3,4.6-11.3,11.1-11.3c1.5,0,2.9,0.1,4.8,0.4V97.3C394.4,97.3,388.6,99.5,384.7,103.9L384.7,103.9z M443,98.3v3.5
		c-3.1-3.1-7.5-4.5-13.3-4.5c-13.6,0-25.2,10.2-25.2,27c0,16.8,11.5,27.1,25.2,27.1c6.5,0,11.2-1.7,14.3-5.2v4.3h20.5V98.3H443
		L443,98.3z M434.8,134.6c-4.8,0-8.5-3.5-8.5-10.3c0-6.8,3.7-10.2,8.5-10.2c4.8,0,8.5,3.4,8.5,10.2
		C443.3,131.1,439.6,134.6,434.8,134.6L434.8,134.6z M510.2,79.6v22.1c-3.1-3.1-7.5-4.5-13.3-4.5c-13.6,0-25.2,10.2-25.2,27
		c0,16.8,11.5,27.1,25.2,27.1c6.5,0,11.2-1.7,14.3-5.2v4.3h20.5V79.6H510.2L510.2,79.6z M502.1,134.6c-4.8,0-8.5-3.5-8.5-10.3
		c0-6.8,3.7-10.2,8.5-10.2c4.8,0,8.5,3.4,8.5,10.2C510.6,131.1,506.9,134.6,502.1,134.6L502.1,134.6z M596.9,124.3
		c0-17.7-13.3-27-28.7-27c-16.9,0-29.6,11.2-29.6,27c0,15.6,12.4,27.1,31.6,27.1c10.4,0,17.8-2.9,22.8-8.4l-11.3-11.4
		c-3.4,2.6-6.1,3.8-10.9,3.8c-5.3,0-9-2.1-10.5-6.1h36.3C596.7,127.8,596.9,125.8,596.9,124.3L596.9,124.3z M568.4,112
		c4.4,0,7.5,2.6,8.4,7H560C560.8,114.6,563.9,112,568.4,112L568.4,112z M624.2,103.9v-5.6h-20.5v52.2h21.6v-23.2
		c0-8.3,4.6-11.3,11.1-11.3c1.5,0,2.9,0.1,4.8,0.4V97.3C633.8,97.3,628,99.5,624.2,103.9L624.2,103.9z"/>
	<polygon class="st0" points="697.1,108.3 718.5,78.6 692.4,78.6 684.6,90.5 697.1,108.3 	"/>
	<polygon points="691.9,114.2 666.9,78.6 641.2,78.6 666.2,114.2 640.2,150.4 666,150.4 691.9,114.2 	"/>
	<polygon class="st0" points="684.3,137.9 692.3,150.4 720,150.4 697.7,119.1 684.3,137.9 	"/>
	<path class="st0" d="M155.1,99.3l43.4-60.3c-2.3-5.6-7.8-9.6-14.2-9.6H144l-18.5,28L155.1,99.3L155.1,99.3z M156.5,124.7L124.8,169
		l19,29.4h40.4c7.8,0,14.2-5.9,15.2-13.5l-0.1-0.2L156.5,124.7L156.5,124.7z"/>
	<path class="st1" d="M199.4,184.9c0.1-0.6,0.2-1.2,0.2-1.9V44.6c0-2-0.4-4-1.1-5.7l-43.4,60.3l-29.5-42l18.5-28H83.8l59,83.8
		l-61.1,85.3h62.1l-19-29.4l31.7-44.3L199.4,184.9L199.4,184.9z M31.1,40.5c-0.4,1.3-0.6,2.7-0.6,4.2V183c0,0.7,0.1,1.3,0.2,2
		l51.5-71.9L31.1,40.5L31.1,40.5z"/>
	<path class="st1" d="M230,189V41c0-22.6-18.4-41-41-41H41C18.4,0,0,18.4,0,41v148c0,22.6,18.4,41,41,41h148
		C211.7,230,230,211.7,230,189L230,189z M218.2,186.5c0,17.5-14.2,31.7-31.7,31.7h-143c-17.5,0-31.7-14.2-31.7-31.7v-143
		C11.8,26,26,11.9,43.5,11.9h143c17.5,0,31.7,14.2,31.7,31.7V186.5L218.2,186.5z"/>
</g>
</svg>
